<svg xmlns="http://www.w3.org/2000/svg" viewBox="0 0 120 120" fill="none">
  <title>Toad</title>
  <g stroke="#1a1a1a" stroke-width="3" stroke-linecap="round" stroke-linejoin="round">
    <path d="M32 64Q7 59 13 86L8 100l17-1 11-9M88 64Q113 59 107 86l5 14-17-1-11-9" fill="#0f766e"/>
    <path d="M32 42Q22 59 29 76Q20 100 60 103Q100 100 91 76Q98 59 88 42Z" fill="#0f766e"/>
    <ellipse cx="60" cy="79" rx="24" ry="20" fill="#f5c542"/>
    <path d="M28 97 20 107h24l1-11m47 1 8 10H76l-1-11" fill="#0f766e"/>
    <circle cx="39" cy="37" r="17" fill="#0f766e"/><circle cx="81" cy="37" r="17" fill="#0f766e"/>
    <circle cx="39" cy="37" r="11" fill="#f7f2de"/><circle cx="81" cy="37" r="11" fill="#f7f2de"/>
    <path d="M35 58Q60 70 85 58"/>
  </g>
  <ellipse cx="42" cy="38" rx="4" ry="6" fill="#1a1a1a"/><ellipse cx="78" cy="38" rx="4" ry="6" fill="#1a1a1a"/>
  <g fill="#f5c542"><circle cx="24" cy="70" r="3"/><circle cx="95" cy="75" r="4"/><circle cx="88" cy="58" r="3"/></g>
  <circle cx="54" cy="52" r="2" fill="#1a1a1a"/><circle cx="66" cy="52" r="2" fill="#1a1a1a"/>
</svg>
